<?xml version="1.0" encoding="utf-8" ?><svg xmlns="http://www.w3.org/2000/svg" xmlns:xlink="http://www.w3.org/1999/xlink" width="512" height="256" viewBox="0 0 512 256"><path fill="#FFFFFE" transform="scale(0.25 0.25)" d="M0 0L2048 0L2048 1024L0 1024L0 0Z"/><path fill="#8F2073" transform="scale(0.25 0.25)" d="M828.291 193.209L1196.68 193.396C1201.02 200.277 1204.99 207.577 1209.21 214.559C1268.83 313.054 1326.65 412.949 1387.21 510.848C1359.13 560.508 1326.99 612.427 1297.54 661.619L1196.76 830.499L827.344 830.647C790.769 770.299 754.577 709.719 718.769 648.913C692.211 604.378 662.766 557.019 637.448 512.102C700.244 406.476 764.091 297.765 828.291 193.209Z"/><path fill="#FFFFFE" transform="scale(0.25 0.25)" d="M835.311 206.143L1188.62 206.296C1196.56 218.104 1206.15 235.23 1213.76 247.949C1231.16 276.971 1248.4 306.084 1265.49 335.288C1300.17 394.119 1336.66 453.006 1371.95 511.564L1189.08 817.672C1151.16 818.434 1110.81 817.633 1072.62 817.659L835.41 817.67C830.031 809.714 825.134 800.989 820.084 792.786C763.125 700.288 710.212 604.431 652.527 512.455C674.594 477.64 696.687 439.054 717.956 403.465L835.311 206.143Z"/><path fill="#56A8DD" transform="scale(0.25 0.25)" d="M845.033 222.983L1179.88 223.101C1236.71 319.179 1297.02 415.756 1352.83 511.981C1329.1 552.985 1302.61 595.137 1278.18 636.036C1245.65 691.176 1212.79 746.123 1179.61 800.874C1131.37 801.466 1082.44 800.958 1034.11 800.948L843.815 800.645C836.372 787.07 826.392 771.56 818.348 758.039C802.125 730.136 785.626 702.395 768.855 674.818L672.367 512.567C689.01 483.356 707.538 453.88 724.704 424.913L845.033 222.983Z"/><path fill="#FFFFFE" transform="scale(0.25 0.25)" d="M849.602 231.04L1175.87 231.355C1189.53 258.012 1211.27 290.777 1226.92 317.547C1264.8 382.346 1305.31 446.525 1343.1 511.319C1337.74 522.639 1325.79 541.152 1318.98 552.393L1279.55 617.937C1244.91 675.436 1210.26 736.106 1175.07 792.83C1162.58 793.58 1145.11 793.154 1132.32 793.127L1058.47 792.931L848.843 792.915C832.063 766.909 813.73 734.002 797.548 706.935C758.742 642.365 720.293 577.581 682.204 512.586C697.076 485.783 715.411 456.357 731.189 429.786L849.602 231.04Z"/><path fill="#8F2073" transform="scale(0.25 0.25)" d="M1008.55 244.289C1038.68 244.364 1046.85 275.165 1014.22 286.554L1013.98 373.863C1022.4 374.225 1028.98 375.815 1037.13 377.754C1037.33 363.223 1034.01 338.902 1042.8 328.323C1055.61 312.894 1085.49 320.67 1103.24 318.859C1108.45 319.36 1108.19 311.811 1111.77 308.715C1123.48 298.579 1145.19 303.337 1144.3 320.927C1144.11 324.298 1142.52 327.437 1139.91 329.58C1129.91 337.932 1116.22 334.233 1108.35 324.669C1094 324.249 1071.5 322.366 1057.96 325.676C1050.76 327.435 1047 332.058 1043.66 338.334C1043.66 352.002 1043.74 365.671 1043.9 379.338C1051.96 382.055 1061.14 386.007 1069.13 389.225L1069.11 346.817C1080.59 346.195 1096.82 346.68 1108.66 346.673L1108.79 411.253C1124.21 422.085 1133.58 431.568 1143.12 447.554C1156.43 436.903 1169.38 424.943 1182.09 413.517C1170.64 408.119 1162.01 396.645 1172.45 385.393C1189.48 367.041 1225.81 383.352 1208.76 407.86C1205.3 412.831 1194.93 414.615 1189.36 414.716C1176.27 426.164 1160.36 441.993 1146.92 452.045L1200.78 452.218C1209.68 437.007 1219.14 430.414 1237.64 436.075C1256.86 441.959 1253.19 468.036 1235.68 474.306C1219.92 479.947 1207.96 473.141 1201.94 458.024L1146.97 457.834C1147.21 465.438 1147.1 473.724 1147.15 481.388C1157.67 481.45 1210.14 479.914 1215.97 482.181L1216.85 484.27L1216.03 486.185C1212.29 488.343 1156.65 487.467 1147.35 487.41L1147.4 508.375C1153.74 508.38 1195.41 507.27 1198.65 509.638C1198.66 512.789 1199.09 511.724 1197.33 513.857C1188.6 515.213 1158.1 514.423 1147.33 514.351L1147.29 534.896C1158.48 534.923 1210.63 532.861 1216.91 537.294L1216.69 538.788C1212.98 541.675 1156.1 540.627 1147.39 540.628C1145.51 549.932 1143.7 553.258 1139.7 561.813C1160.17 561.885 1181.56 561.596 1201.93 562.257C1212.18 539.756 1243.8 543.637 1249.59 558.128C1260.2 584.699 1215.75 606.119 1201.33 568.305C1183.75 568.016 1166.17 567.919 1148.59 568.014C1162.36 581.012 1176.22 593.918 1190.17 606.731L1190.85 606.828C1198.56 607.925 1204.62 608.798 1209.84 615.143C1217.04 622.449 1213.08 636.9 1204.66 641.761C1180.9 655.477 1149.82 626.967 1182.7 608.332C1169.81 595.577 1150.22 577.086 1136.56 565.658C1126.97 576.446 1121.69 580.299 1109.87 588.878L1109.68 672.336C1096.3 672.285 1082.92 672.109 1069.56 672.685L1069.53 610.248C1060.35 613.826 1052.67 616.203 1043.21 618.764C1043.17 625.694 1043.57 636.137 1043.1 642.619C1037.74 715.477 1061.79 681.9 1108 695.711C1115.43 684.407 1129.69 677.789 1140.4 688.531C1143.3 691.437 1144.92 695.385 1144.9 699.494C1144.88 703.498 1143.26 707.329 1140.4 710.132C1124.25 726.063 1105.62 700.275 1095.44 699.198C1056.59 695.087 1032.7 706.793 1036.83 652.789C1037.35 646.072 1037.03 628.636 1037.04 619.689C1028.73 621.303 1022.59 621.746 1014.19 621.941L1014.07 702.5L1014.1 734.869C1016.04 735.598 1017.97 736.371 1019.88 737.186C1040.15 745.959 1037.09 768.938 1020.15 774.764C992.019 784.44 966.196 745.48 1007.88 734.655L1007.82 622.51C1000.08 621.84 992.205 620.704 984.49 619.687C984.27 636.075 986.122 664.869 983.138 679.867C974.056 707.691 941.893 693.188 923.874 698.56C909.513 705.8 893.575 730.225 877.482 706.839C867.529 692.376 900.281 670.397 912.967 697.078C935.959 686.291 953.818 699.33 972.606 685.585C980.578 679.753 978.386 660.528 978.253 651.328C978.104 641.088 978.001 629.278 977.954 618.418C969.11 615.764 960.946 613.248 952.209 610.164L952.075 672.123L913.845 672.125L913.711 589.837C902.48 581.164 896.513 575.311 886.913 564.825C871.332 578.967 855.862 593.23 840.505 607.614C841.91 608.518 843.269 609.491 844.577 610.53C877.547 636.881 812.429 664.53 807.908 627.16C806.102 612.236 820.123 606.867 833.092 606.306C846.714 593.985 860.234 581.551 873.649 569.005C856.219 568.818 838.787 568.782 821.356 568.898C801.829 615.094 748.914 571.014 782.405 550.37C788.351 546.783 795.489 545.738 802.213 547.47C812.076 549.993 815.659 554.803 820.525 562.924C831.678 563.02 875.236 564.861 882.36 560.557C882.75 558.221 877.622 545.972 876.348 542.169C859.427 542.302 834.945 543.92 819.042 539.618C816.655 538.973 807.312 533.748 804.643 532.267C804.165 518.816 804.447 504.541 804.521 491.013C827.953 476.192 847.66 480.044 874.97 480.354L874.969 459.153C856.985 458.835 838.997 458.803 821.013 459.056C795.04 501.564 746.925 452.642 787.92 434.396C801.28 428.45 816.882 438.429 821.253 453.002L874.42 453.033C862.553 443.454 846.579 427.633 835.451 416.965C824.33 414.753 807.288 410.26 808.556 395.227C810.347 373.988 846.156 367.556 853.228 389.131C857.463 402.049 851.776 407.425 841.608 414.155C851.558 425.012 867.269 437.791 878.506 449.478C886.107 433.176 900.338 422.252 913.962 411.334C913.858 389.974 913.948 368.614 914.231 347.257C923.844 346.648 942.4 346.917 952.004 347.462L951.973 390.068C960.492 386.458 969.765 383.183 978.478 379.944C978.97 367.702 978.848 350.535 978.318 338.326C965.287 318.836 936.462 324.732 914.766 324.795C907.553 333.68 895.677 338.797 885.853 333.169C859.914 318.311 902.835 281.64 915.621 318.726C940.587 319.303 968.922 311.839 983.989 335.632C984.833 348.336 984.418 365.448 984.443 378.49C993.231 376.122 999.816 374.929 1008.78 373.654C1008.97 344.611 1008.92 315.567 1008.63 286.524C998.954 283.932 990.35 279.756 987.786 269.128C986.577 264.293 987.413 259.173 990.095 254.973C994.606 247.924 1000.9 245.975 1008.55 244.289Z"/><path fill="#FFFFFE" transform="scale(0.25 0.25)" d="M1004.94 380.321L1007.38 380.128C1042.11 377.537 1091.06 404.931 1117.74 426.336C1142.11 445.879 1142.01 467.155 1140.72 495.887C1139.71 518.27 1146.67 547.493 1128.61 565.371C1099.6 594.079 1059.07 612.977 1018.24 615.753C979.099 616.615 946.817 604.969 915.028 582.454C901.512 572.881 882.671 553.382 882.134 536.098C882.596 514.323 878.608 479.686 882.734 459.308C891.219 417.39 970.26 385.145 1004.94 380.321Z"/><path fill="#8F2073" transform="scale(0.25 0.25)" d="M1012.33 388.557C1043.41 387.072 1089.26 413.5 1112.7 432.896C1134.39 450.84 1133.19 471.436 1131.98 497.098C1130.97 518.462 1137.86 545.048 1119.97 561.831C1090.9 589.102 1052.59 606.221 1012.62 608.066C974.615 606.705 939.693 594.04 910.476 568.916C899.963 559.876 888.97 543.766 889.75 529.428C892.2 512.053 885.923 474.278 890.964 459.199C904.125 419.829 977.626 389.983 1012.33 388.557Z"/><path fill="#FFFFFE" transform="scale(0.25 0.25)" d="M1004.08 395.243C1041.33 392.986 1076.34 413.176 1105.24 434.934C1128.32 452.315 1126.52 471.34 1125.39 497.57C1124.57 516.424 1130.77 542.238 1115.87 557.035C1090.9 581.837 1051.86 599.514 1016.75 602.216C1011.45 600.952 1002.06 602.164 995.211 600.894C956.344 593.691 892.042 568.334 896.339 519.26C897.911 501.317 894.308 482.076 896.76 464.144C905.327 427.46 972.897 399.793 1004.08 395.243Z"/><path fill="#8F2073" transform="scale(0.25 0.25)" d="M982.7 459.992C994.212 459.839 1027.47 456.434 1012.91 478.159C1016.63 485.123 1019.78 481.699 1017.89 492.168C1009.44 500.653 993.912 498.216 982.571 498.064C982.74 485.443 982.663 472.631 982.7 459.992Z"/><path fill="#FFFFFE" transform="scale(0.25 0.25)" d="M991.432 481.853C996.203 481.826 1003.13 481.005 1006.97 483.046C1009.66 486.428 1008.89 485.27 1009.13 490.178C1005.05 491.13 997.192 492.289 993.407 490.293C990.715 487.032 991.605 487.103 991.432 481.853Z"/><path fill="#FFFFFE" transform="scale(0.25 0.25)" d="M991.244 466.809C995.593 466.713 1002.28 465.911 1005.73 468.31C1007.5 471.979 1007.03 470.755 1006.23 475.334C1002.23 475.726 995.894 476.968 992.679 475.116C990.472 471.477 991.222 471.746 991.244 466.809Z"/><path fill="#8F2073" transform="scale(0.25 0.25)" d="M1026.44 459.869C1036.1 459.808 1046.92 458.957 1055.71 463.623C1066.22 469.205 1058.21 479.72 1054.08 486.704C1054.24 489.766 1058.9 494.299 1061.17 496.948L1060.57 498.24C1046.41 498.691 1053.37 496.467 1044.4 489.149C1043.79 488.651 1038.14 487.895 1035.88 489.065C1035.52 492.215 1035.52 493.913 1035.56 497.046C1032.98 499.321 1030.99 498.728 1028.19 497.664C1025.17 493.373 1026.41 467.262 1026.44 459.869Z"/><path fill="#FFFFFE" transform="scale(0.25 0.25)" d="M1035.54 466.883C1041.25 466.896 1046.93 465.98 1050.55 471.004C1051.72 474.562 1051.15 475.95 1050.3 479.596C1045.72 481.608 1040.87 482.822 1036.73 479.783C1034.75 476.53 1035.44 470.908 1035.54 466.883Z"/><path fill="#8F2073" transform="scale(0.25 0.25)" d="M1083.27 459.906C1086.42 459.771 1088.5 459.457 1091.42 460.738C1093.78 464.415 1108.05 492.89 1109.6 497.327C1098.96 503.26 1099.4 492.071 1094.12 490.007C1091.52 489.957 1087.95 489.908 1085.47 489.938C1074.89 490.067 1078.71 492.422 1073.49 497.851C1070.53 499.17 1068.6 498.506 1065.46 497.899C1065.38 495.995 1081.34 464.007 1083.27 459.906Z"/><path fill="#FFFFFE" transform="scale(0.25 0.25)" d="M1086.59 470.55C1089.57 472.598 1092.3 478.778 1092.85 482.385L1091.2 483.49C1087.03 483.377 1085.85 484.042 1082.83 482.131C1082.33 478.273 1084.79 474.596 1086.59 470.55Z"/><path fill="#8F2073" transform="scale(0.25 0.25)" d="M937.829 460.116C950.689 459.214 951.467 465.759 957.379 476.014C962.446 468.151 964.764 462.694 973.665 458.756L974.975 459.691C975.653 463.928 969.63 471.456 967.117 475.089C965.779 476.813 963.364 480.801 962.071 482.793C962.272 488.5 963.636 496.988 957.092 499.51C951.085 497.976 952.626 488.126 952.953 483.606L937.829 460.116Z"/><path fill="#8F2073" transform="scale(0.25 0.25)" d="M909.106 459.909C912.025 459.816 913.973 459.407 916.352 460.958C919.686 466.831 917.951 482.983 917.918 490.971C923.769 491.125 934.274 489.171 938.735 492.252C939.84 493.016 939.788 496.169 939.986 497.942C931.735 498.417 917.753 498.037 909.115 498.049L909.106 459.909Z"/><path fill="#04070C" transform="scale(0.25 0.25)" d="M1065.36 516.909C1070.42 516.855 1075.23 516.745 1080.29 517.113C1081.77 518.592 1084.9 535.133 1084.59 537.907C1078.72 540.879 1071.82 540.091 1065.18 540.027L1065.36 516.909Z"/><path fill="#FFFFFE" transform="scale(0.25 0.25)" d="M1068.29 529.969C1072.16 529.789 1075.53 529.383 1079.26 530.439C1081.97 533.257 1081.22 532.082 1081.6 536.539C1077.95 537.125 1073.44 538.272 1070.1 537.031C1067.68 534.175 1068.45 534.595 1068.29 529.969Z"/><path fill="#FFFFFE" transform="scale(0.25 0.25)" d="M1068.35 519.852C1071.77 519.722 1075.03 519.337 1078.26 520.403C1080.61 523.285 1079.92 522.408 1079.99 526.838C1076.55 527.064 1073.41 527.501 1070.08 526.622C1067.77 523.719 1068.49 524.322 1068.35 519.852Z"/><path fill="#04070C" transform="scale(0.25 0.25)" d="M955.121 516.439L957.172 516.896C960.592 519.706 967.187 534.131 968.598 538.629L967.897 539.877C963.378 538.558 965.98 535.299 960.248 533.862C948.235 534.036 954.166 536.012 945.481 538.452C945.271 535.73 953.357 520.092 955.121 516.439Z"/><path fill="#FFFFFE" transform="scale(0.25 0.25)" d="M956.203 520.566C958.562 523.284 960.508 526.521 960.603 530.165L958.523 532.265C955.862 531.719 955.165 531.694 953.028 530.064C952.71 526.371 954.439 524.29 956.203 520.566Z"/><path fill="#04070C" transform="scale(0.25 0.25)" d="M1043.91 516.276C1048.82 517.036 1056.02 534.369 1057.06 539.09L1056.41 539.924C1051.89 538.584 1054.86 536.105 1049.21 534C1038.2 533.656 1039.23 538.04 1034.09 538.239C1035.41 533.402 1041.48 521.383 1043.91 516.276Z"/><path fill="#04070C" transform="scale(0.25 0.25)" d="M1011.55 516.237L1013.89 518.196C1014.9 523.382 1014.51 532.034 1014.45 537.659C1019.21 537.624 1025.09 536.823 1028.24 539.554C1023.94 540.378 1015.85 540.156 1011.2 540.176C1011.14 531.945 1011.07 524.446 1011.55 516.237Z"/><path fill="#04070C" transform="scale(0.25 0.25)" d="M977.171 516.243L978.661 516.789C981.539 520.881 979.992 535.106 979.685 540.569L978.364 539.999C975.844 536.538 977.02 521.591 977.171 516.243Z"/><path fill="#FFFFFE" transform="scale(0.25 0.25)" d="M826.824 486.223L875.162 486.265L875.024 536.465C866.466 536.666 828.76 538.223 823.719 535.751L810.977 529.638L810.97 513.891C819.798 513.927 842.38 515.088 849.048 511.447L848.704 510.124C840 506.788 821.012 507.942 811.051 508.058L811.081 494.08C816.723 490.993 820.924 488.789 826.824 486.223Z"/><path fill="#FFFFFE" transform="scale(0.25 0.25)" d="M1101.94 593.906L1102.87 594.219C1104.85 598.088 1103.45 658.425 1103.35 666.797L1077.98 666.631L1076.27 666.011C1074.7 661.657 1075.76 616.238 1075.81 607.907C1084.36 603.81 1093.56 598.506 1101.94 593.906Z"/><path fill="#FFFFFE" transform="scale(0.25 0.25)" d="M920.121 594.203C923.264 595.415 941.371 605.298 946.09 607.549C946.362 627.124 946.166 647.034 946.156 666.635L919.943 666.663L920.121 594.203Z"/><path fill="#FFFFFE" transform="scale(0.25 0.25)" d="M1075.58 352.393L1102.87 352.457L1102.84 407.403C1093.92 402.23 1084.91 397.219 1075.81 392.374C1075.44 379.42 1075.64 365.429 1075.58 352.393Z"/><path fill="#FFFFFE" transform="scale(0.25 0.25)" d="M920.084 353.016L946.067 352.991L946.076 393.053L935.711 398.044C930.709 400.585 924.981 403.942 919.997 406.693L920.084 353.016Z"/><path fill="#FFFFFE" transform="scale(0.25 0.25)" d="M791.263 552.229C814.086 550.135 824.374 573.336 800.489 583.487C778.013 585.508 767.108 562.809 791.263 552.229Z"/><path fill="#FFFFFE" transform="scale(0.25 0.25)" d="M790 439.006C814.901 437.099 824.051 458.609 801.745 469.836C777.859 471.771 768.223 450.185 790 439.006Z"/><path fill="#FFFFFE" transform="scale(0.25 0.25)" d="M1220.29 552.21C1243.97 548.848 1255.44 570.981 1233.82 582.316C1225.29 583.344 1215.96 582.417 1210.79 574.457C1208.79 571.421 1208.16 567.683 1209.07 564.162C1210.66 557.707 1215.01 555.332 1220.29 552.21Z"/><path fill="#FFFFFE" transform="scale(0.25 0.25)" d="M1219.49 440.22C1244.58 436.752 1255.37 459.902 1232.56 469.827C1210.56 473.002 1197.71 452.411 1219.49 440.22Z"/><path fill="#FFFFFE" transform="scale(0.25 0.25)" d="M1008.01 249.185C1031.44 249.017 1037.45 273.692 1013.87 281.072C991.463 280.065 984.522 258.764 1008.01 249.185Z"/><path fill="#FFFFFE" transform="scale(0.25 0.25)" d="M1005.1 741.095C1013.87 740.662 1022.8 741.785 1026.96 750.91C1028.35 753.886 1028.47 757.297 1027.3 760.366C1025.04 766.168 1020.37 768.576 1015.06 770.925C991.717 772.319 982.106 750.252 1005.1 741.095Z"/><path fill="#56A8DD" transform="scale(0.25 0.25)" d="M826.247 380.993C848.124 379.81 859.22 398.082 837.979 409.612C829.201 410.508 819.941 409.789 815.65 400.57C814.242 397.608 814.079 394.205 815.197 391.122C817.159 385.653 821.329 383.333 826.247 380.993Z"/><path fill="#56A8DD" transform="scale(0.25 0.25)" d="M827.574 611.068C835.587 610.84 843.158 612.718 846.488 620.918C847.807 624.173 847.751 627.824 846.333 631.037C843.951 636.459 839.63 638.506 834.445 640.461C811.171 640.223 804.241 618.483 827.574 611.068Z"/><path fill="#56A8DD" transform="scale(0.25 0.25)" d="M1189.48 612.149C1209.79 612.529 1215.87 631.489 1194.94 640.402C1186.57 640.311 1177.74 638.583 1175.22 629.12C1174.41 626.096 1174.87 622.877 1176.47 620.192C1179.47 615.103 1184.16 613.622 1189.48 612.149Z"/><path fill="#56A8DD" transform="scale(0.25 0.25)" d="M1188.17 382.23C1210.19 383.881 1215.82 403.223 1193.24 410.151C1185.71 410.253 1177.06 407.057 1174.58 399.262C1173.7 396.406 1173.99 393.318 1175.4 390.682C1178.24 385.269 1182.73 383.909 1188.17 382.23Z"/><path fill="#FFFFFE" transform="scale(0.25 0.25)" d="M893.674 308.18C909.818 308.597 915.253 322.682 899.416 330.294C893.465 330.15 887.862 329.349 884.883 323.434C883.736 321.211 883.582 318.607 884.458 316.264C886.128 311.748 889.602 310.08 893.674 308.18Z"/><path fill="#FFFFFE" transform="scale(0.25 0.25)" d="M1123.17 688.806C1138.66 688.409 1145.86 700.111 1130.72 709.888C1125.44 710.172 1119.97 709.63 1116.57 704.976C1115.05 702.888 1114.52 700.25 1115.09 697.737C1116.14 693.132 1119.46 691.172 1123.17 688.806Z"/><path fill="#FFFFFE" transform="scale(0.25 0.25)" d="M890.325 690.149C906.697 688.965 912.616 701.356 897.963 710.865C892.488 711.118 886.979 710.264 883.792 705.186C882.571 703.232 882.186 700.87 882.724 698.63C883.759 694.134 886.696 692.533 890.325 690.149Z"/><path fill="#FFFFFE" transform="scale(0.25 0.25)" d="M1120.95 308.82C1136.09 308.09 1145.56 318.395 1130.71 328.721C1115.74 330.382 1106.23 318.682 1120.95 308.82Z"/><path fill="#8F2073" transform="scale(0.25 0.25)" d="M1244.95 493.198C1255.73 491.898 1267.81 494.17 1272.38 505.422C1274.08 509.522 1274.07 514.133 1272.35 518.224C1269.27 525.428 1264.13 528.024 1257.34 530.732C1246.94 532.815 1234.31 528.438 1230.01 518.072C1228.25 513.819 1228.3 509.027 1230.16 504.814C1233.14 498.104 1238.56 495.707 1244.95 493.198Z"/><path fill="#56A8DD" transform="scale(0.25 0.25)" d="M1244.92 498.103C1268.06 496.384 1277.71 514.898 1256.41 525.722C1248.42 526.601 1239.72 524.862 1235.48 517.28C1233.94 514.58 1233.58 511.366 1234.49 508.394C1236.23 502.752 1240.01 500.585 1244.92 498.103Z"/><path fill="#8F2073" transform="scale(0.25 0.25)" d="M765.851 493.331C776.891 491.83 788.337 495.421 792.274 506.827C793.836 511.226 793.528 516.071 791.423 520.237C788.164 526.721 783.311 528.649 776.847 530.696C766.236 531.833 755.498 528.931 751.058 518.208C749.238 513.89 749.292 509.01 751.208 504.733C754.254 498.025 759.388 495.732 765.851 493.331Z"/><path fill="#56A8DD" transform="scale(0.25 0.25)" d="M766.006 498.095C774.314 497.482 781.918 498.6 786.301 506.723C787.765 509.388 788.109 512.525 787.257 515.444C785.554 521.17 782.086 523.329 777.139 525.952C769.059 526.729 761.036 525.647 756.532 517.938C754.875 515.142 754.479 511.774 755.443 508.67C757.195 502.947 761.079 500.767 766.006 498.095Z"/><path fill="#8F2073" transform="scale(0.25 0.25)" d="M957.454 710.254C982.465 707.555 993.396 738.776 963.41 745.94C953.447 746.282 942.604 743.161 939.624 732.396C938.516 728.406 939.067 724.137 941.153 720.56C944.849 714.077 950.735 712.016 957.454 710.254Z"/><path fill="#56A8DD" transform="scale(0.25 0.25)" d="M955.958 715.097C975.427 714.585 984.774 730.35 965.127 740.672C945.017 742.729 935.814 724.397 955.958 715.097Z"/><path fill="#8F2073" transform="scale(0.25 0.25)" d="M953.865 271.252C964.483 270.353 975.239 271.343 980.333 282.512C981.98 286.069 982.126 290.14 980.736 293.806C978.247 300.332 972.99 303.197 967.018 305.811C938.034 307.815 927.474 283.023 953.865 271.252Z"/><path fill="#56A8DD" transform="scale(0.25 0.25)" d="M955.106 276.083C963.098 275.723 970.815 275.966 975.022 284.284C976.285 286.721 976.454 289.579 975.487 292.148C973.722 296.95 969.47 299.217 965.183 301.284C957.93 302.139 950.083 301.14 946.317 293.952C944.887 291.208 944.666 287.991 945.708 285.077C947.44 280.116 950.692 278.298 955.106 276.083Z"/><path fill="#8F2073" transform="scale(0.25 0.25)" d="M1055.77 711.271C1066.55 710.056 1078.08 711.419 1082.7 723.059C1084.17 726.708 1084.1 730.792 1082.53 734.393C1079.85 740.383 1075.17 742.994 1069.39 745.219C1043.39 749.602 1029.76 725.111 1055.77 711.271Z"/><path fill="#56A8DD" transform="scale(0.25 0.25)" d="M1060.35 714.984C1080.1 715.736 1085.32 734.834 1065.79 741.047C1058.63 740.804 1051.1 739.551 1048.38 731.784C1047.42 729.081 1047.59 726.102 1048.86 723.527C1051.28 718.547 1055.48 716.739 1060.35 714.984Z"/><path fill="#8F2073" transform="scale(0.25 0.25)" d="M1055.95 271.281C1085.2 269.093 1093.58 294.892 1068.69 304.985C1042.6 308.615 1028.59 282.868 1055.95 271.281Z"/><path fill="#56A8DD" transform="scale(0.25 0.25)" d="M1056.84 276.079C1076.26 274.547 1086.53 289.543 1067.81 300.681C1048.91 302.768 1038.18 286.336 1056.84 276.079Z"/><path fill="#56714B" transform="scale(0.25 0.25)" d="M1210.36 500.912C1224.46 502.771 1227.99 513.732 1214.69 520.361C1199.03 519.81 1194.65 506.711 1210.36 500.912Z"/></svg>