<svg width="260" height="80" viewBox="0 0 260 80" xmlns="http://www.w3.org/2000/svg" fill="none">
  <defs>
    <linearGradient id="grad1" x1="0" y1="0" x2="260" y2="80">
      <stop offset="0%" stop-color="#4B6CB7"/>
      <stop offset="100%" stop-color="#182848"/>
    </linearGradient>
    <linearGradient id="textGrad" x1="0" y1="0" x2="0" y2="40">
      <stop offset="0%" stop-color="#9D7FEA" />
      <stop offset="100%" stop-color="#5B5BD1" />
    </linearGradient>
  </defs>
  <rect width="260" height="80" rx="20" fill="url(#grad1)" />
  
  <!-- Нейросетевая структура -->
  <circle cx="45" cy="40" r="6" fill="#A177FF" />
  <circle cx="80" cy="20" r="5" fill="#8D68FE" />
  <circle cx="80" cy="60" r="5" fill="#8D68FE" />
  <circle cx="120" cy="40" r="7" fill="#7045FE" />
  <circle cx="160" cy="25" r="4" fill="#906BC9" />
  <circle cx="160" cy="55" r="4" fill="#906BC9" />
  <circle cx="200" cy="40" r="6" fill="#8252FD" />
  
  <line x1="45" y1="40" x2="80" y2="20" stroke="#D1C4FF" stroke-width="2" />
  <line x1="45" y1="40" x2="80" y2="60" stroke="#D1C4FF" stroke-width="2" />
  <line x1="80" y1="20" x2="120" y2="40" stroke="#D1C4FF" stroke-width="2" />
  <line x1="80" y1="60" x2="120" y2="40" stroke="#D1C4FF" stroke-width="2" />
  <line x1="120" y1="40" x2="160" y2="25" stroke="#D1C4FF" stroke-width="2" />
  <line x1="120" y1="40" x2="160" y2="55" stroke="#D1C4FF" stroke-width="2" />
  <line x1="160" y1="25" x2="200" y2="40" stroke="#D1C4FF" stroke-width="2" />
  <line x1="160" y1="55" x2="200" y2="40" stroke="#D1C4FF" stroke-width="2" />
  
  <!-- Текст с градиентом -->
  <text x="220" y="46" font-family="Montserrat, Arial, sans-serif" font-weight="700" font-size="30" fill="url(#textGrad)">Lybra-Ai</text>
</svg>
